<mxfile host="65bd71144e">
    <diagram id="M5Lcu6ghYK4TTuQE4OxJ" name="Entidad-Atributos">
        <mxGraphModel dx="960" dy="269" grid="1" gridSize="10" guides="1" tooltips="1" connect="1" arrows="1" fold="1" page="1" pageScale="1" pageWidth="827" pageHeight="1169" math="0" shadow="0">
            <root>
                <mxCell id="0"/>
                <mxCell id="1" parent="0"/>
                <mxCell id="2" value="HOTEL" style="rounded=0;whiteSpace=wrap;html=1;" parent="1" vertex="1">
                    <mxGeometry x="280" y="170" width="100" height="40" as="geometry"/>
                </mxCell>
                <mxCell id="3" value="Nombre" style="ellipse;whiteSpace=wrap;html=1;" parent="1" vertex="1">
                    <mxGeometry x="100" y="260" width="90" height="50" as="geometry"/>
                </mxCell>
                <mxCell id="4" value="" style="endArrow=none;html=1;rounded=0;entryX=0;entryY=1;entryDx=0;entryDy=0;exitX=1;exitY=0;exitDx=0;exitDy=0;" parent="1" source="3" target="2" edge="1">
                    <mxGeometry width="50" height="50" relative="1" as="geometry">
                        <mxPoint x="180" y="280" as="sourcePoint"/>
                        <mxPoint x="270" y="240" as="targetPoint"/>
                        <Array as="points"/>
                    </mxGeometry>
                </mxCell>
                <mxCell id="5" value="Ubicación" style="ellipse;whiteSpace=wrap;html=1;" parent="1" vertex="1">
                    <mxGeometry x="130" y="330" width="90" height="50" as="geometry"/>
                </mxCell>
                <mxCell id="6" value="Servicios" style="ellipse;whiteSpace=wrap;html=1;" parent="1" vertex="1">
                    <mxGeometry x="230" y="350" width="90" height="50" as="geometry"/>
                </mxCell>
                <mxCell id="7" value="Categoria" style="ellipse;whiteSpace=wrap;html=1;" parent="1" vertex="1">
                    <mxGeometry x="340" y="350" width="90" height="50" as="geometry"/>
                </mxCell>
                <mxCell id="8" value="Teléfono" style="ellipse;whiteSpace=wrap;html=1;" parent="1" vertex="1">
                    <mxGeometry x="440" y="320" width="90" height="50" as="geometry"/>
                </mxCell>
                <mxCell id="9" value="Cantida de habitaciones" style="ellipse;whiteSpace=wrap;html=1;" parent="1" vertex="1">
                    <mxGeometry x="460" y="250" width="90" height="50" as="geometry"/>
                </mxCell>
                <mxCell id="10" value="" style="endArrow=none;html=1;rounded=0;entryX=0.25;entryY=1;entryDx=0;entryDy=0;" parent="1" source="5" target="2" edge="1">
                    <mxGeometry width="50" height="50" relative="1" as="geometry">
                        <mxPoint x="230" y="320" as="sourcePoint"/>
                        <mxPoint x="323" y="263" as="targetPoint"/>
                        <Array as="points"/>
                    </mxGeometry>
                </mxCell>
                <mxCell id="11" value="" style="endArrow=none;html=1;rounded=0;entryX=0.5;entryY=1;entryDx=0;entryDy=0;exitX=0.433;exitY=0;exitDx=0;exitDy=0;exitPerimeter=0;" parent="1" source="6" target="2" edge="1">
                    <mxGeometry width="50" height="50" relative="1" as="geometry">
                        <mxPoint x="330" y="320" as="sourcePoint"/>
                        <mxPoint x="423" y="263" as="targetPoint"/>
                        <Array as="points"/>
                    </mxGeometry>
                </mxCell>
                <mxCell id="12" value="" style="endArrow=none;html=1;rounded=0;entryX=0.75;entryY=1;entryDx=0;entryDy=0;" parent="1" source="7" target="2" edge="1">
                    <mxGeometry width="50" height="50" relative="1" as="geometry">
                        <mxPoint x="360" y="300" as="sourcePoint"/>
                        <mxPoint x="453" y="243" as="targetPoint"/>
                        <Array as="points"/>
                    </mxGeometry>
                </mxCell>
                <mxCell id="13" value="" style="endArrow=none;html=1;rounded=0;entryX=0.927;entryY=1;entryDx=0;entryDy=0;entryPerimeter=0;exitX=0;exitY=0;exitDx=0;exitDy=0;" parent="1" source="8" target="2" edge="1">
                    <mxGeometry width="50" height="50" relative="1" as="geometry">
                        <mxPoint x="440" y="290" as="sourcePoint"/>
                        <mxPoint x="513" y="203" as="targetPoint"/>
                        <Array as="points"/>
                    </mxGeometry>
                </mxCell>
                <mxCell id="14" value="" style="endArrow=none;html=1;rounded=0;exitX=1;exitY=1;exitDx=0;exitDy=0;entryX=0;entryY=0;entryDx=0;entryDy=0;" parent="1" source="2" target="9" edge="1">
                    <mxGeometry width="50" height="50" relative="1" as="geometry">
                        <mxPoint x="380" y="230" as="sourcePoint"/>
                        <mxPoint x="473" y="173" as="targetPoint"/>
                        <Array as="points"/>
                    </mxGeometry>
                </mxCell>
                <mxCell id="15" value="HABITACIONES" style="rounded=0;whiteSpace=wrap;html=1;" parent="1" vertex="1">
                    <mxGeometry x="260" y="480" width="130" height="50" as="geometry"/>
                </mxCell>
                <mxCell id="16" value="Titulo&amp;nbsp;" style="ellipse;whiteSpace=wrap;html=1;" parent="1" vertex="1">
                    <mxGeometry x="100" y="570" width="90" height="50" as="geometry"/>
                </mxCell>
                <mxCell id="17" value="Precio" style="ellipse;whiteSpace=wrap;html=1;" parent="1" vertex="1">
                    <mxGeometry x="180" y="640" width="90" height="50" as="geometry"/>
                </mxCell>
                <mxCell id="18" value="Cantidad de personas" style="ellipse;whiteSpace=wrap;html=1;" parent="1" vertex="1">
                    <mxGeometry x="290" y="640" width="90" height="50" as="geometry"/>
                </mxCell>
                <mxCell id="19" value="Descripción" style="ellipse;whiteSpace=wrap;html=1;" parent="1" vertex="1">
                    <mxGeometry x="400" y="640" width="90" height="50" as="geometry"/>
                </mxCell>
                <mxCell id="20" value="Estado" style="ellipse;whiteSpace=wrap;html=1;" parent="1" vertex="1">
                    <mxGeometry x="450" y="560" width="90" height="50" as="geometry"/>
                </mxCell>
                <mxCell id="21" value="" style="endArrow=none;html=1;rounded=0;entryX=0;entryY=1;entryDx=0;entryDy=0;exitX=1;exitY=0;exitDx=0;exitDy=0;" parent="1" target="15" edge="1">
                    <mxGeometry width="50" height="50" relative="1" as="geometry">
                        <mxPoint x="173.5" y="577" as="sourcePoint"/>
                        <mxPoint x="276.5" y="520" as="targetPoint"/>
                        <Array as="points"/>
                    </mxGeometry>
                </mxCell>
                <mxCell id="22" value="" style="endArrow=none;html=1;rounded=0;entryX=0.2;entryY=1.02;entryDx=0;entryDy=0;exitX=1;exitY=0;exitDx=0;exitDy=0;entryPerimeter=0;" parent="1" target="15" edge="1">
                    <mxGeometry width="50" height="50" relative="1" as="geometry">
                        <mxPoint x="220" y="640" as="sourcePoint"/>
                        <mxPoint x="323" y="583" as="targetPoint"/>
                        <Array as="points"/>
                    </mxGeometry>
                </mxCell>
                <mxCell id="23" value="" style="endArrow=none;html=1;rounded=0;entryX=0.5;entryY=1;entryDx=0;entryDy=0;" parent="1" target="15" edge="1">
                    <mxGeometry width="50" height="50" relative="1" as="geometry">
                        <mxPoint x="325" y="640" as="sourcePoint"/>
                        <mxPoint x="423" y="570" as="targetPoint"/>
                        <Array as="points"/>
                    </mxGeometry>
                </mxCell>
                <mxCell id="24" value="" style="endArrow=none;html=1;rounded=0;entryX=0.75;entryY=1;entryDx=0;entryDy=0;exitX=0.333;exitY=0.08;exitDx=0;exitDy=0;exitPerimeter=0;" parent="1" source="19" target="15" edge="1">
                    <mxGeometry width="50" height="50" relative="1" as="geometry">
                        <mxPoint x="420" y="630" as="sourcePoint"/>
                        <mxPoint x="517" y="585" as="targetPoint"/>
                        <Array as="points"/>
                    </mxGeometry>
                </mxCell>
                <mxCell id="25" value="" style="endArrow=none;html=1;rounded=0;exitX=0.433;exitY=0;exitDx=0;exitDy=0;exitPerimeter=0;entryX=0.222;entryY=0.08;entryDx=0;entryDy=0;entryPerimeter=0;" parent="1" target="20" edge="1">
                    <mxGeometry width="50" height="50" relative="1" as="geometry">
                        <mxPoint x="390" y="530" as="sourcePoint"/>
                        <mxPoint x="420" y="470" as="targetPoint"/>
                        <Array as="points"/>
                    </mxGeometry>
                </mxCell>
                <mxCell id="26" value="RESERVA" style="rounded=0;whiteSpace=wrap;html=1;" parent="1" vertex="1">
                    <mxGeometry x="265" y="770" width="130" height="50" as="geometry"/>
                </mxCell>
                <mxCell id="27" value="Nombre" style="ellipse;whiteSpace=wrap;html=1;" parent="1" vertex="1">
                    <mxGeometry x="120" y="850" width="90" height="50" as="geometry"/>
                </mxCell>
                <mxCell id="28" value="Email" style="ellipse;whiteSpace=wrap;html=1;" parent="1" vertex="1">
                    <mxGeometry x="175" y="930" width="90" height="50" as="geometry"/>
                </mxCell>
                <mxCell id="29" value="Teléfono" style="ellipse;whiteSpace=wrap;html=1;" parent="1" vertex="1">
                    <mxGeometry x="285" y="930" width="90" height="50" as="geometry"/>
                </mxCell>
                <mxCell id="30" value="Fecha de entrada" style="ellipse;whiteSpace=wrap;html=1;" parent="1" vertex="1">
                    <mxGeometry x="395" y="940" width="90" height="50" as="geometry"/>
                </mxCell>
                <mxCell id="31" value="Fecha de salida" style="ellipse;whiteSpace=wrap;html=1;" parent="1" vertex="1">
                    <mxGeometry x="500" y="920" width="90" height="50" as="geometry"/>
                </mxCell>
                <mxCell id="32" value="Cantidad de personas" style="ellipse;whiteSpace=wrap;html=1;" parent="1" vertex="1">
                    <mxGeometry x="460" y="820" width="90" height="50" as="geometry"/>
                </mxCell>
                <mxCell id="33" value="" style="endArrow=none;html=1;rounded=0;exitX=1;exitY=0;exitDx=0;exitDy=0;" parent="1" edge="1">
                    <mxGeometry width="50" height="50" relative="1" as="geometry">
                        <mxPoint x="198.5" y="857" as="sourcePoint"/>
                        <mxPoint x="270" y="820" as="targetPoint"/>
                        <Array as="points"/>
                    </mxGeometry>
                </mxCell>
                <mxCell id="34" value="" style="endArrow=none;html=1;rounded=0;entryX=0.208;entryY=1.02;entryDx=0;entryDy=0;exitX=1;exitY=0;exitDx=0;exitDy=0;entryPerimeter=0;" parent="1" target="26" edge="1">
                    <mxGeometry width="50" height="50" relative="1" as="geometry">
                        <mxPoint x="230" y="930" as="sourcePoint"/>
                        <mxPoint x="316.5" y="883" as="targetPoint"/>
                        <Array as="points"/>
                    </mxGeometry>
                </mxCell>
                <mxCell id="35" value="" style="endArrow=none;html=1;rounded=0;entryX=0.5;entryY=1;entryDx=0;entryDy=0;exitX=1;exitY=0;exitDx=0;exitDy=0;" parent="1" target="26" edge="1">
                    <mxGeometry width="50" height="50" relative="1" as="geometry">
                        <mxPoint x="327" y="930" as="sourcePoint"/>
                        <mxPoint x="413.5" y="883" as="targetPoint"/>
                        <Array as="points"/>
                    </mxGeometry>
                </mxCell>
                <mxCell id="36" value="" style="endArrow=none;html=1;rounded=0;exitX=1;exitY=0;exitDx=0;exitDy=0;" parent="1" edge="1">
                    <mxGeometry width="50" height="50" relative="1" as="geometry">
                        <mxPoint x="440" y="940" as="sourcePoint"/>
                        <mxPoint x="360" y="820" as="targetPoint"/>
                        <Array as="points"/>
                    </mxGeometry>
                </mxCell>
                <mxCell id="37" value="" style="endArrow=none;html=1;rounded=0;entryX=0.962;entryY=1;entryDx=0;entryDy=0;exitX=1;exitY=0;exitDx=0;exitDy=0;entryPerimeter=0;" parent="1" target="26" edge="1">
                    <mxGeometry width="50" height="50" relative="1" as="geometry">
                        <mxPoint x="540" y="920" as="sourcePoint"/>
                        <mxPoint x="626.5" y="873" as="targetPoint"/>
                        <Array as="points"/>
                    </mxGeometry>
                </mxCell>
                <mxCell id="38" value="" style="endArrow=none;html=1;rounded=0;entryX=1;entryY=0.75;entryDx=0;entryDy=0;exitX=1;exitY=0;exitDx=0;exitDy=0;" parent="1" target="26" edge="1">
                    <mxGeometry width="50" height="50" relative="1" as="geometry">
                        <mxPoint x="490" y="820" as="sourcePoint"/>
                        <mxPoint x="576.5" y="773" as="targetPoint"/>
                        <Array as="points"/>
                    </mxGeometry>
                </mxCell>
            </root>
        </mxGraphModel>
    </diagram>
    <diagram name="Relaciones" id="TgBDTpZg6xSAbD0jD8jw">
        <mxGraphModel dx="960" dy="779" grid="1" gridSize="10" guides="1" tooltips="1" connect="1" arrows="1" fold="1" page="1" pageScale="1" pageWidth="827" pageHeight="1169" math="0" shadow="0">
            <root>
                <mxCell id="0"/>
                <mxCell id="1" parent="0"/>
                <mxCell id="RQ8V5nxqRy7mhl66NAqg-1" value="" style="rounded=0;whiteSpace=wrap;html=1;" parent="1" vertex="1">
                    <mxGeometry x="90" y="90" width="120" height="60" as="geometry"/>
                </mxCell>
                <mxCell id="RQ8V5nxqRy7mhl66NAqg-2" value="&lt;font style=&quot;font-size: 14px;&quot;&gt;Hotel&lt;/font&gt;" style="text;whiteSpace=wrap;html=1;" parent="1" vertex="1">
                    <mxGeometry x="130" y="100" width="60" height="40" as="geometry"/>
                </mxCell>
                <mxCell id="RQ8V5nxqRy7mhl66NAqg-4" value="&lt;font style=&quot;font-size: 14px;&quot;&gt;Habitaciones&lt;/font&gt;" style="rounded=0;whiteSpace=wrap;html=1;" parent="1" vertex="1">
                    <mxGeometry x="600" y="90" width="120" height="60" as="geometry"/>
                </mxCell>
                <mxCell id="RQ8V5nxqRy7mhl66NAqg-6" value="Tiene" style="rhombus;whiteSpace=wrap;html=1;" parent="1" vertex="1">
                    <mxGeometry x="340" y="75" width="120" height="90" as="geometry"/>
                </mxCell>
                <mxCell id="RQ8V5nxqRy7mhl66NAqg-7" value="" style="endArrow=none;html=1;rounded=0;entryX=0;entryY=0.5;entryDx=0;entryDy=0;" parent="1" target="RQ8V5nxqRy7mhl66NAqg-6" edge="1">
                    <mxGeometry width="50" height="50" relative="1" as="geometry">
                        <mxPoint x="210" y="120" as="sourcePoint"/>
                        <mxPoint x="260" y="70" as="targetPoint"/>
                    </mxGeometry>
                </mxCell>
                <mxCell id="RQ8V5nxqRy7mhl66NAqg-8" value="" style="endArrow=none;html=1;rounded=0;entryX=0;entryY=0.5;entryDx=0;entryDy=0;" parent="1" target="RQ8V5nxqRy7mhl66NAqg-4" edge="1">
                    <mxGeometry width="50" height="50" relative="1" as="geometry">
                        <mxPoint x="460" y="119.5" as="sourcePoint"/>
                        <mxPoint x="590" y="119.5" as="targetPoint"/>
                    </mxGeometry>
                </mxCell>
                <mxCell id="RQ8V5nxqRy7mhl66NAqg-9" value="1" style="text;html=1;align=center;verticalAlign=middle;resizable=0;points=[];autosize=1;strokeColor=#6c8ebf;fillColor=#dae8fc;" parent="1" vertex="1">
                    <mxGeometry x="255" y="75" width="30" height="30" as="geometry"/>
                </mxCell>
                <mxCell id="RQ8V5nxqRy7mhl66NAqg-10" value="N" style="text;html=1;align=center;verticalAlign=middle;resizable=0;points=[];autosize=1;strokeColor=#6c8ebf;fillColor=#dae8fc;" parent="1" vertex="1">
                    <mxGeometry x="545" y="68" width="30" height="30" as="geometry"/>
                </mxCell>
                <mxCell id="RQ8V5nxqRy7mhl66NAqg-11" value="1" style="text;html=1;align=center;verticalAlign=middle;resizable=0;points=[];autosize=1;strokeColor=none;fillColor=none;" parent="1" vertex="1">
                    <mxGeometry x="545" y="150" width="30" height="30" as="geometry"/>
                </mxCell>
                <mxCell id="RQ8V5nxqRy7mhl66NAqg-12" value="1" style="text;html=1;align=center;verticalAlign=middle;resizable=0;points=[];autosize=1;strokeColor=none;fillColor=none;" parent="1" vertex="1">
                    <mxGeometry x="255" y="138" width="30" height="30" as="geometry"/>
                </mxCell>
                <mxCell id="RQ8V5nxqRy7mhl66NAqg-13" value="Habitaciones" style="rounded=0;whiteSpace=wrap;html=1;" parent="1" vertex="1">
                    <mxGeometry x="90" y="310" width="120" height="60" as="geometry"/>
                </mxCell>
                <mxCell id="nINFmZ4upaGsxwFY66Zy-1" value="&lt;span style=&quot;font-size: 14px;&quot;&gt;Reserva&lt;/span&gt;" style="rounded=0;whiteSpace=wrap;html=1;" parent="1" vertex="1">
                    <mxGeometry x="590" y="310" width="120" height="60" as="geometry"/>
                </mxCell>
                <mxCell id="nINFmZ4upaGsxwFY66Zy-2" value="Tiene" style="rhombus;whiteSpace=wrap;html=1;" parent="1" vertex="1">
                    <mxGeometry x="350" y="295" width="120" height="90" as="geometry"/>
                </mxCell>
                <mxCell id="nINFmZ4upaGsxwFY66Zy-3" value="" style="endArrow=none;html=1;rounded=0;entryX=0;entryY=0.5;entryDx=0;entryDy=0;" parent="1" edge="1">
                    <mxGeometry width="50" height="50" relative="1" as="geometry">
                        <mxPoint x="210" y="339.5" as="sourcePoint"/>
                        <mxPoint x="350" y="340" as="targetPoint"/>
                    </mxGeometry>
                </mxCell>
                <mxCell id="nINFmZ4upaGsxwFY66Zy-4" value="" style="endArrow=none;html=1;rounded=0;" parent="1" edge="1">
                    <mxGeometry width="50" height="50" relative="1" as="geometry">
                        <mxPoint x="470" y="339.5" as="sourcePoint"/>
                        <mxPoint x="590" y="340" as="targetPoint"/>
                    </mxGeometry>
                </mxCell>
                <mxCell id="nINFmZ4upaGsxwFY66Zy-5" value="1" style="text;html=1;align=center;verticalAlign=middle;resizable=0;points=[];autosize=1;strokeColor=none;fillColor=none;" parent="1" vertex="1">
                    <mxGeometry x="245" y="298" width="30" height="30" as="geometry"/>
                </mxCell>
                <mxCell id="nINFmZ4upaGsxwFY66Zy-6" value="N" style="text;html=1;align=center;verticalAlign=middle;resizable=0;points=[];autosize=1;strokeColor=#6c8ebf;fillColor=#dae8fc;" parent="1" vertex="1">
                    <mxGeometry x="525" y="298" width="30" height="30" as="geometry"/>
                </mxCell>
                <mxCell id="nINFmZ4upaGsxwFY66Zy-7" value="1" style="text;html=1;align=center;verticalAlign=middle;resizable=0;points=[];autosize=1;strokeColor=none;fillColor=none;" parent="1" vertex="1">
                    <mxGeometry x="525" y="360" width="30" height="30" as="geometry"/>
                </mxCell>
                <mxCell id="nINFmZ4upaGsxwFY66Zy-8" value="1" style="text;html=1;align=center;verticalAlign=middle;resizable=0;points=[];autosize=1;strokeColor=none;fillColor=none;" parent="1" vertex="1">
                    <mxGeometry x="245" y="360" width="30" height="30" as="geometry"/>
                </mxCell>
                <mxCell id="cprOxRTD1XyZ3Y9TxpE7-1" value="" style="endArrow=classic;html=1;rounded=0;" parent="1" edge="1">
                    <mxGeometry width="50" height="50" relative="1" as="geometry">
                        <mxPoint x="310" y="50" as="sourcePoint"/>
                        <mxPoint x="500" y="50" as="targetPoint"/>
                    </mxGeometry>
                </mxCell>
                <mxCell id="cprOxRTD1XyZ3Y9TxpE7-2" value="" style="endArrow=classic;html=1;rounded=0;" parent="1" edge="1">
                    <mxGeometry width="50" height="50" relative="1" as="geometry">
                        <mxPoint x="520" y="200" as="sourcePoint"/>
                        <mxPoint x="300" y="200" as="targetPoint"/>
                    </mxGeometry>
                </mxCell>
                <mxCell id="cprOxRTD1XyZ3Y9TxpE7-3" value="" style="endArrow=classic;html=1;rounded=0;" parent="1" edge="1">
                    <mxGeometry width="50" height="50" relative="1" as="geometry">
                        <mxPoint x="300" y="280" as="sourcePoint"/>
                        <mxPoint x="490" y="280" as="targetPoint"/>
                    </mxGeometry>
                </mxCell>
                <mxCell id="cprOxRTD1XyZ3Y9TxpE7-4" value="" style="endArrow=classic;html=1;rounded=0;" parent="1" edge="1">
                    <mxGeometry width="50" height="50" relative="1" as="geometry">
                        <mxPoint x="510" y="420" as="sourcePoint"/>
                        <mxPoint x="290" y="420" as="targetPoint"/>
                    </mxGeometry>
                </mxCell>
                <mxCell id="hi886D_F6AZuHHmQrvIG-6" value="Hotel" style="shape=table;startSize=30;container=1;collapsible=0;childLayout=tableLayout;fixedRows=1;rowLines=0;fontStyle=0;strokeColor=default;fontSize=16;" parent="1" vertex="1">
                    <mxGeometry x="180" y="580" width="278" height="240" as="geometry"/>
                </mxCell>
                <mxCell id="hi886D_F6AZuHHmQrvIG-7" value="" style="shape=tableRow;horizontal=0;startSize=0;swimlaneHead=0;swimlaneBody=0;top=0;left=0;bottom=0;right=0;collapsible=0;dropTarget=0;fillColor=none;points=[[0,0.5],[1,0.5]];portConstraint=eastwest;strokeColor=inherit;fontSize=16;" parent="hi886D_F6AZuHHmQrvIG-6" vertex="1">
                    <mxGeometry y="30" width="278" height="20" as="geometry"/>
                </mxCell>
                <mxCell id="hi886D_F6AZuHHmQrvIG-8" value="&lt;b&gt;PK&lt;/b&gt;" style="shape=partialRectangle;html=1;whiteSpace=wrap;connectable=0;fillColor=none;top=0;left=0;bottom=0;right=0;overflow=hidden;pointerEvents=1;strokeColor=inherit;fontSize=16;" parent="hi886D_F6AZuHHmQrvIG-7" vertex="1">
                    <mxGeometry width="56" height="20" as="geometry">
                        <mxRectangle width="56" height="20" as="alternateBounds"/>
                    </mxGeometry>
                </mxCell>
                <mxCell id="hi886D_F6AZuHHmQrvIG-9" value="&lt;u&gt;&lt;b&gt;id_hotel (INT)&lt;/b&gt;&lt;/u&gt;" style="shape=partialRectangle;html=1;whiteSpace=wrap;connectable=0;fillColor=none;top=0;left=0;bottom=0;right=0;align=left;spacingLeft=6;overflow=hidden;strokeColor=inherit;fontSize=16;" parent="hi886D_F6AZuHHmQrvIG-7" vertex="1">
                    <mxGeometry x="56" width="222" height="20" as="geometry">
                        <mxRectangle width="222" height="20" as="alternateBounds"/>
                    </mxGeometry>
                </mxCell>
                <mxCell id="hi886D_F6AZuHHmQrvIG-10" value="" style="shape=tableRow;horizontal=0;startSize=0;swimlaneHead=0;swimlaneBody=0;top=0;left=0;bottom=0;right=0;collapsible=0;dropTarget=0;fillColor=none;points=[[0,0.5],[1,0.5]];portConstraint=eastwest;strokeColor=inherit;fontSize=16;" parent="hi886D_F6AZuHHmQrvIG-6" vertex="1">
                    <mxGeometry y="50" width="278" height="20" as="geometry"/>
                </mxCell>
                <mxCell id="hi886D_F6AZuHHmQrvIG-11" value="" style="shape=partialRectangle;html=1;whiteSpace=wrap;connectable=0;fillColor=none;top=0;left=0;bottom=0;right=0;overflow=hidden;strokeColor=inherit;fontSize=16;" parent="hi886D_F6AZuHHmQrvIG-10" vertex="1">
                    <mxGeometry width="56" height="20" as="geometry">
                        <mxRectangle width="56" height="20" as="alternateBounds"/>
                    </mxGeometry>
                </mxCell>
                <mxCell id="hi886D_F6AZuHHmQrvIG-12" value="nombre (VARCHAR&amp;nbsp; 50)" style="shape=partialRectangle;html=1;whiteSpace=wrap;connectable=0;fillColor=none;top=0;left=0;bottom=0;right=0;align=left;spacingLeft=6;overflow=hidden;strokeColor=inherit;fontSize=16;" parent="hi886D_F6AZuHHmQrvIG-10" vertex="1">
                    <mxGeometry x="56" width="222" height="20" as="geometry">
                        <mxRectangle width="222" height="20" as="alternateBounds"/>
                    </mxGeometry>
                </mxCell>
                <mxCell id="hi886D_F6AZuHHmQrvIG-13" value="" style="shape=tableRow;horizontal=0;startSize=0;swimlaneHead=0;swimlaneBody=0;top=0;left=0;bottom=0;right=0;collapsible=0;dropTarget=0;fillColor=none;points=[[0,0.5],[1,0.5]];portConstraint=eastwest;strokeColor=inherit;fontSize=16;" parent="hi886D_F6AZuHHmQrvIG-6" vertex="1">
                    <mxGeometry y="70" width="278" height="30" as="geometry"/>
                </mxCell>
                <mxCell id="hi886D_F6AZuHHmQrvIG-14" value="" style="shape=partialRectangle;html=1;whiteSpace=wrap;connectable=0;fillColor=none;top=0;left=0;bottom=0;right=0;overflow=hidden;strokeColor=inherit;fontSize=16;" parent="hi886D_F6AZuHHmQrvIG-13" vertex="1">
                    <mxGeometry width="56" height="30" as="geometry">
                        <mxRectangle width="56" height="30" as="alternateBounds"/>
                    </mxGeometry>
                </mxCell>
                <mxCell id="hi886D_F6AZuHHmQrvIG-15" value="ubicación (VARCHAR 50)" style="shape=partialRectangle;html=1;whiteSpace=wrap;connectable=0;fillColor=none;top=0;left=0;bottom=0;right=0;align=left;spacingLeft=6;overflow=hidden;strokeColor=inherit;fontSize=16;" parent="hi886D_F6AZuHHmQrvIG-13" vertex="1">
                    <mxGeometry x="56" width="222" height="30" as="geometry">
                        <mxRectangle width="222" height="30" as="alternateBounds"/>
                    </mxGeometry>
                </mxCell>
                <mxCell id="s4g-nFfuTIHbZDl78kR9-2" value="" style="shape=tableRow;horizontal=0;startSize=0;swimlaneHead=0;swimlaneBody=0;top=0;left=0;bottom=0;right=0;collapsible=0;dropTarget=0;fillColor=none;points=[[0,0.5],[1,0.5]];portConstraint=eastwest;strokeColor=inherit;fontSize=16;" parent="hi886D_F6AZuHHmQrvIG-6" vertex="1">
                    <mxGeometry y="100" width="278" height="30" as="geometry"/>
                </mxCell>
                <mxCell id="s4g-nFfuTIHbZDl78kR9-3" value="" style="shape=partialRectangle;html=1;whiteSpace=wrap;connectable=0;fillColor=none;top=0;left=0;bottom=0;right=0;overflow=hidden;strokeColor=inherit;fontSize=16;" parent="s4g-nFfuTIHbZDl78kR9-2" vertex="1">
                    <mxGeometry width="56" height="30" as="geometry">
                        <mxRectangle width="56" height="30" as="alternateBounds"/>
                    </mxGeometry>
                </mxCell>
                <mxCell id="s4g-nFfuTIHbZDl78kR9-4" value="servicios(VARCHAR 150)" style="shape=partialRectangle;html=1;whiteSpace=wrap;connectable=0;fillColor=none;top=0;left=0;bottom=0;right=0;align=left;spacingLeft=6;overflow=hidden;strokeColor=inherit;fontSize=16;" parent="s4g-nFfuTIHbZDl78kR9-2" vertex="1">
                    <mxGeometry x="56" width="222" height="30" as="geometry">
                        <mxRectangle width="222" height="30" as="alternateBounds"/>
                    </mxGeometry>
                </mxCell>
                <mxCell id="W7JC0FGTdWwCXN0vXKJG-1" value="categoria (VARCHAR 50)" style="shape=partialRectangle;html=1;whiteSpace=wrap;connectable=0;fillColor=none;top=0;left=0;bottom=0;right=0;align=left;spacingLeft=6;overflow=hidden;strokeColor=inherit;fontSize=16;" parent="1" vertex="1">
                    <mxGeometry x="240" y="710" width="192" height="30" as="geometry">
                        <mxRectangle width="192" height="30" as="alternateBounds"/>
                    </mxGeometry>
                </mxCell>
                <mxCell id="1mROLnw1CHABpLldJk-L-2" value="teléfono (VARCHAR 20)" style="shape=partialRectangle;html=1;whiteSpace=wrap;connectable=0;fillColor=none;top=0;left=0;bottom=0;right=0;align=left;spacingLeft=6;overflow=hidden;strokeColor=inherit;fontSize=16;" parent="1" vertex="1">
                    <mxGeometry x="245" y="740" width="192" height="30" as="geometry">
                        <mxRectangle width="192" height="30" as="alternateBounds"/>
                    </mxGeometry>
                </mxCell>
                <mxCell id="rrziq-NU7HGIITXFIfw3-1" value="cantidad_habitaciones (INT)" style="shape=partialRectangle;html=1;whiteSpace=wrap;connectable=0;fillColor=none;top=0;left=0;bottom=0;right=0;align=left;spacingLeft=6;overflow=hidden;strokeColor=inherit;fontSize=16;" parent="1" vertex="1">
                    <mxGeometry x="240" y="770" width="230" height="30" as="geometry">
                        <mxRectangle width="192" height="30" as="alternateBounds"/>
                    </mxGeometry>
                </mxCell>
                <mxCell id="uO4QV5dqB0JAfxWj99dK-5" value="" style="line;strokeWidth=4;html=1;perimeter=backbonePerimeter;points=[];outlineConnect=0;rotation=-90;" parent="1" vertex="1">
                    <mxGeometry x="130" y="710" width="210" height="10" as="geometry"/>
                </mxCell>
                <mxCell id="E9QCLlrzz1mhbUktbQry-1" value="" style="endArrow=classic;html=1;entryX=0;entryY=0.5;entryDx=0;entryDy=0;" parent="1" target="uO4QV5dqB0JAfxWj99dK-10" edge="1">
                    <mxGeometry width="50" height="50" relative="1" as="geometry">
                        <mxPoint x="458" y="630" as="sourcePoint"/>
                        <mxPoint x="508" y="580" as="targetPoint"/>
                    </mxGeometry>
                </mxCell>
                <mxCell id="uO4QV5dqB0JAfxWj99dK-6" value="Habitaciones" style="shape=table;startSize=25;container=1;collapsible=0;childLayout=tableLayout;fixedRows=1;rowLines=0;fontStyle=0;strokeColor=default;fontSize=16;" parent="1" vertex="1">
                    <mxGeometry x="610" y="615" width="279" height="210" as="geometry"/>
                </mxCell>
                <mxCell id="uO4QV5dqB0JAfxWj99dK-7" value="" style="shape=tableRow;horizontal=0;startSize=0;swimlaneHead=0;swimlaneBody=0;top=0;left=0;bottom=0;right=0;collapsible=0;dropTarget=0;fillColor=none;points=[[0,0.5],[1,0.5]];portConstraint=eastwest;strokeColor=inherit;fontSize=16;" parent="uO4QV5dqB0JAfxWj99dK-6" vertex="1">
                    <mxGeometry y="25" width="279" height="20" as="geometry"/>
                </mxCell>
                <mxCell id="uO4QV5dqB0JAfxWj99dK-8" value="&lt;b&gt;PK&lt;/b&gt;" style="shape=partialRectangle;html=1;whiteSpace=wrap;connectable=0;fillColor=none;top=0;left=0;bottom=0;right=0;overflow=hidden;pointerEvents=1;strokeColor=inherit;fontSize=16;" parent="uO4QV5dqB0JAfxWj99dK-7" vertex="1">
                    <mxGeometry width="56" height="20" as="geometry">
                        <mxRectangle width="56" height="20" as="alternateBounds"/>
                    </mxGeometry>
                </mxCell>
                <mxCell id="uO4QV5dqB0JAfxWj99dK-9" value="&lt;u&gt;&lt;b&gt;id_habitacion (INT)&lt;/b&gt;&lt;/u&gt;" style="shape=partialRectangle;html=1;whiteSpace=wrap;connectable=0;fillColor=none;top=0;left=0;bottom=0;right=0;align=left;spacingLeft=6;overflow=hidden;strokeColor=inherit;fontSize=16;" parent="uO4QV5dqB0JAfxWj99dK-7" vertex="1">
                    <mxGeometry x="56" width="223" height="20" as="geometry">
                        <mxRectangle width="223" height="20" as="alternateBounds"/>
                    </mxGeometry>
                </mxCell>
                <mxCell id="uO4QV5dqB0JAfxWj99dK-10" value="" style="shape=tableRow;horizontal=0;startSize=0;swimlaneHead=0;swimlaneBody=0;top=0;left=0;bottom=0;right=0;collapsible=0;dropTarget=0;fillColor=none;points=[[0,0.5],[1,0.5]];portConstraint=eastwest;strokeColor=inherit;fontSize=16;" parent="uO4QV5dqB0JAfxWj99dK-6" vertex="1">
                    <mxGeometry y="45" width="279" height="20" as="geometry"/>
                </mxCell>
                <mxCell id="uO4QV5dqB0JAfxWj99dK-11" value="&lt;b&gt;FK&lt;/b&gt;" style="shape=partialRectangle;html=1;whiteSpace=wrap;connectable=0;fillColor=none;top=0;left=0;bottom=0;right=0;overflow=hidden;strokeColor=inherit;fontSize=16;" parent="uO4QV5dqB0JAfxWj99dK-10" vertex="1">
                    <mxGeometry width="56" height="20" as="geometry">
                        <mxRectangle width="56" height="20" as="alternateBounds"/>
                    </mxGeometry>
                </mxCell>
                <mxCell id="uO4QV5dqB0JAfxWj99dK-12" value="&lt;b&gt;&lt;u&gt;id_hotel (INT)&lt;/u&gt;&lt;/b&gt;" style="shape=partialRectangle;html=1;whiteSpace=wrap;connectable=0;fillColor=none;top=0;left=0;bottom=0;right=0;align=left;spacingLeft=6;overflow=hidden;strokeColor=inherit;fontSize=16;" parent="uO4QV5dqB0JAfxWj99dK-10" vertex="1">
                    <mxGeometry x="56" width="223" height="20" as="geometry">
                        <mxRectangle width="223" height="20" as="alternateBounds"/>
                    </mxGeometry>
                </mxCell>
                <mxCell id="uO4QV5dqB0JAfxWj99dK-13" value="" style="shape=tableRow;horizontal=0;startSize=0;swimlaneHead=0;swimlaneBody=0;top=0;left=0;bottom=0;right=0;collapsible=0;dropTarget=0;fillColor=none;points=[[0,0.5],[1,0.5]];portConstraint=eastwest;strokeColor=inherit;fontSize=16;" parent="uO4QV5dqB0JAfxWj99dK-6" vertex="1">
                    <mxGeometry y="65" width="279" height="30" as="geometry"/>
                </mxCell>
                <mxCell id="uO4QV5dqB0JAfxWj99dK-14" value="" style="shape=partialRectangle;html=1;whiteSpace=wrap;connectable=0;fillColor=none;top=0;left=0;bottom=0;right=0;overflow=hidden;strokeColor=inherit;fontSize=16;" parent="uO4QV5dqB0JAfxWj99dK-13" vertex="1">
                    <mxGeometry width="56" height="30" as="geometry">
                        <mxRectangle width="56" height="30" as="alternateBounds"/>
                    </mxGeometry>
                </mxCell>
                <mxCell id="uO4QV5dqB0JAfxWj99dK-15" value="titulo (VARCHAR 50)" style="shape=partialRectangle;html=1;whiteSpace=wrap;connectable=0;fillColor=none;top=0;left=0;bottom=0;right=0;align=left;spacingLeft=6;overflow=hidden;strokeColor=inherit;fontSize=16;" parent="uO4QV5dqB0JAfxWj99dK-13" vertex="1">
                    <mxGeometry x="56" width="223" height="30" as="geometry">
                        <mxRectangle width="223" height="30" as="alternateBounds"/>
                    </mxGeometry>
                </mxCell>
                <mxCell id="uO4QV5dqB0JAfxWj99dK-16" value="" style="shape=tableRow;horizontal=0;startSize=0;swimlaneHead=0;swimlaneBody=0;top=0;left=0;bottom=0;right=0;collapsible=0;dropTarget=0;fillColor=none;points=[[0,0.5],[1,0.5]];portConstraint=eastwest;strokeColor=inherit;fontSize=16;" parent="uO4QV5dqB0JAfxWj99dK-6" vertex="1">
                    <mxGeometry y="95" width="279" height="30" as="geometry"/>
                </mxCell>
                <mxCell id="uO4QV5dqB0JAfxWj99dK-17" value="" style="shape=partialRectangle;html=1;whiteSpace=wrap;connectable=0;fillColor=none;top=0;left=0;bottom=0;right=0;overflow=hidden;strokeColor=inherit;fontSize=16;" parent="uO4QV5dqB0JAfxWj99dK-16" vertex="1">
                    <mxGeometry width="56" height="30" as="geometry">
                        <mxRectangle width="56" height="30" as="alternateBounds"/>
                    </mxGeometry>
                </mxCell>
                <mxCell id="uO4QV5dqB0JAfxWj99dK-18" value="precio (DECIMAL)" style="shape=partialRectangle;html=1;whiteSpace=wrap;connectable=0;fillColor=none;top=0;left=0;bottom=0;right=0;align=left;spacingLeft=6;overflow=hidden;strokeColor=inherit;fontSize=16;" parent="uO4QV5dqB0JAfxWj99dK-16" vertex="1">
                    <mxGeometry x="56" width="223" height="30" as="geometry">
                        <mxRectangle width="223" height="30" as="alternateBounds"/>
                    </mxGeometry>
                </mxCell>
                <mxCell id="RfSrlqHaKMbhKm9TlYOM-1" value="" style="shape=tableRow;horizontal=0;startSize=0;swimlaneHead=0;swimlaneBody=0;top=0;left=0;bottom=0;right=0;collapsible=0;dropTarget=0;fillColor=none;points=[[0,0.5],[1,0.5]];portConstraint=eastwest;strokeColor=inherit;fontSize=16;" parent="uO4QV5dqB0JAfxWj99dK-6" vertex="1">
                    <mxGeometry y="125" width="279" height="20" as="geometry"/>
                </mxCell>
                <mxCell id="RfSrlqHaKMbhKm9TlYOM-2" value="" style="shape=partialRectangle;html=1;whiteSpace=wrap;connectable=0;fillColor=none;top=0;left=0;bottom=0;right=0;overflow=hidden;strokeColor=inherit;fontSize=16;" parent="RfSrlqHaKMbhKm9TlYOM-1" vertex="1">
                    <mxGeometry width="56" height="20" as="geometry">
                        <mxRectangle width="56" height="20" as="alternateBounds"/>
                    </mxGeometry>
                </mxCell>
                <mxCell id="RfSrlqHaKMbhKm9TlYOM-3" value="cantidad_personas (INT)" style="shape=partialRectangle;html=1;whiteSpace=wrap;connectable=0;fillColor=none;top=0;left=0;bottom=0;right=0;align=left;spacingLeft=6;overflow=hidden;strokeColor=inherit;fontSize=16;" parent="RfSrlqHaKMbhKm9TlYOM-1" vertex="1">
                    <mxGeometry x="56" width="223" height="20" as="geometry">
                        <mxRectangle width="223" height="20" as="alternateBounds"/>
                    </mxGeometry>
                </mxCell>
                <mxCell id="JT7fvNtyn5DQ277zkzaM-1" value="" style="shape=tableRow;horizontal=0;startSize=0;swimlaneHead=0;swimlaneBody=0;top=0;left=0;bottom=0;right=0;collapsible=0;dropTarget=0;fillColor=none;points=[[0,0.5],[1,0.5]];portConstraint=eastwest;strokeColor=inherit;fontSize=16;" parent="uO4QV5dqB0JAfxWj99dK-6" vertex="1">
                    <mxGeometry y="145" width="279" height="30" as="geometry"/>
                </mxCell>
                <mxCell id="JT7fvNtyn5DQ277zkzaM-2" value="" style="shape=partialRectangle;html=1;whiteSpace=wrap;connectable=0;fillColor=none;top=0;left=0;bottom=0;right=0;overflow=hidden;strokeColor=inherit;fontSize=16;" parent="JT7fvNtyn5DQ277zkzaM-1" vertex="1">
                    <mxGeometry width="56" height="30" as="geometry">
                        <mxRectangle width="56" height="30" as="alternateBounds"/>
                    </mxGeometry>
                </mxCell>
                <mxCell id="JT7fvNtyn5DQ277zkzaM-3" value="descripcion (TEXT)" style="shape=partialRectangle;html=1;whiteSpace=wrap;connectable=0;fillColor=none;top=0;left=0;bottom=0;right=0;align=left;spacingLeft=6;overflow=hidden;strokeColor=inherit;fontSize=16;" parent="JT7fvNtyn5DQ277zkzaM-1" vertex="1">
                    <mxGeometry x="56" width="223" height="30" as="geometry">
                        <mxRectangle width="223" height="30" as="alternateBounds"/>
                    </mxGeometry>
                </mxCell>
                <mxCell id="i-EBLwyvAAWgkTN1wCGx-1" value="" style="shape=tableRow;horizontal=0;startSize=0;swimlaneHead=0;swimlaneBody=0;top=0;left=0;bottom=0;right=0;collapsible=0;dropTarget=0;fillColor=none;points=[[0,0.5],[1,0.5]];portConstraint=eastwest;strokeColor=inherit;fontSize=16;" parent="uO4QV5dqB0JAfxWj99dK-6" vertex="1">
                    <mxGeometry y="175" width="279" height="30" as="geometry"/>
                </mxCell>
                <mxCell id="i-EBLwyvAAWgkTN1wCGx-2" value="" style="shape=partialRectangle;html=1;whiteSpace=wrap;connectable=0;fillColor=none;top=0;left=0;bottom=0;right=0;overflow=hidden;strokeColor=inherit;fontSize=16;" parent="i-EBLwyvAAWgkTN1wCGx-1" vertex="1">
                    <mxGeometry width="56" height="30" as="geometry">
                        <mxRectangle width="56" height="30" as="alternateBounds"/>
                    </mxGeometry>
                </mxCell>
                <mxCell id="i-EBLwyvAAWgkTN1wCGx-3" value="estado (BOOLEAN)" style="shape=partialRectangle;html=1;whiteSpace=wrap;connectable=0;fillColor=none;top=0;left=0;bottom=0;right=0;align=left;spacingLeft=6;overflow=hidden;strokeColor=inherit;fontSize=16;" parent="i-EBLwyvAAWgkTN1wCGx-1" vertex="1">
                    <mxGeometry x="56" width="223" height="30" as="geometry">
                        <mxRectangle width="223" height="30" as="alternateBounds"/>
                    </mxGeometry>
                </mxCell>
                <mxCell id="i-EBLwyvAAWgkTN1wCGx-27" value="Reservas" style="shape=table;startSize=25;container=1;collapsible=0;childLayout=tableLayout;fixedRows=1;rowLines=0;fontStyle=0;strokeColor=default;fontSize=16;" parent="1" vertex="1">
                    <mxGeometry x="993" y="750" width="270" height="240" as="geometry"/>
                </mxCell>
                <mxCell id="i-EBLwyvAAWgkTN1wCGx-28" value="" style="shape=tableRow;horizontal=0;startSize=0;swimlaneHead=0;swimlaneBody=0;top=0;left=0;bottom=0;right=0;collapsible=0;dropTarget=0;fillColor=none;points=[[0,0.5],[1,0.5]];portConstraint=eastwest;strokeColor=inherit;fontSize=16;" parent="i-EBLwyvAAWgkTN1wCGx-27" vertex="1">
                    <mxGeometry y="25" width="270" height="20" as="geometry"/>
                </mxCell>
                <mxCell id="i-EBLwyvAAWgkTN1wCGx-29" value="&lt;b&gt;PK&lt;/b&gt;" style="shape=partialRectangle;html=1;whiteSpace=wrap;connectable=0;fillColor=none;top=0;left=0;bottom=0;right=0;overflow=hidden;pointerEvents=1;strokeColor=inherit;fontSize=16;" parent="i-EBLwyvAAWgkTN1wCGx-28" vertex="1">
                    <mxGeometry width="54" height="20" as="geometry">
                        <mxRectangle width="54" height="20" as="alternateBounds"/>
                    </mxGeometry>
                </mxCell>
                <mxCell id="i-EBLwyvAAWgkTN1wCGx-30" value="&lt;b&gt;&lt;u&gt;id_reserva (INT)&lt;/u&gt;&lt;/b&gt;" style="shape=partialRectangle;html=1;whiteSpace=wrap;connectable=0;fillColor=none;top=0;left=0;bottom=0;right=0;align=left;spacingLeft=6;overflow=hidden;strokeColor=inherit;fontSize=16;" parent="i-EBLwyvAAWgkTN1wCGx-28" vertex="1">
                    <mxGeometry x="54" width="216" height="20" as="geometry">
                        <mxRectangle width="216" height="20" as="alternateBounds"/>
                    </mxGeometry>
                </mxCell>
                <mxCell id="i-EBLwyvAAWgkTN1wCGx-31" value="" style="shape=tableRow;horizontal=0;startSize=0;swimlaneHead=0;swimlaneBody=0;top=0;left=0;bottom=0;right=0;collapsible=0;dropTarget=0;fillColor=none;points=[[0,0.5],[1,0.5]];portConstraint=eastwest;strokeColor=inherit;fontSize=16;" parent="i-EBLwyvAAWgkTN1wCGx-27" vertex="1">
                    <mxGeometry y="45" width="270" height="20" as="geometry"/>
                </mxCell>
                <mxCell id="i-EBLwyvAAWgkTN1wCGx-32" value="&lt;b&gt;FK&lt;/b&gt;" style="shape=partialRectangle;html=1;whiteSpace=wrap;connectable=0;fillColor=none;top=0;left=0;bottom=0;right=0;overflow=hidden;strokeColor=inherit;fontSize=16;" parent="i-EBLwyvAAWgkTN1wCGx-31" vertex="1">
                    <mxGeometry width="54" height="20" as="geometry">
                        <mxRectangle width="54" height="20" as="alternateBounds"/>
                    </mxGeometry>
                </mxCell>
                <mxCell id="i-EBLwyvAAWgkTN1wCGx-33" value="&lt;b&gt;&lt;u&gt;id_habitacion (INT)&lt;/u&gt;&lt;/b&gt;" style="shape=partialRectangle;html=1;whiteSpace=wrap;connectable=0;fillColor=none;top=0;left=0;bottom=0;right=0;align=left;spacingLeft=6;overflow=hidden;strokeColor=inherit;fontSize=16;" parent="i-EBLwyvAAWgkTN1wCGx-31" vertex="1">
                    <mxGeometry x="54" width="216" height="20" as="geometry">
                        <mxRectangle width="216" height="20" as="alternateBounds"/>
                    </mxGeometry>
                </mxCell>
                <mxCell id="i-EBLwyvAAWgkTN1wCGx-34" value="" style="shape=tableRow;horizontal=0;startSize=0;swimlaneHead=0;swimlaneBody=0;top=0;left=0;bottom=0;right=0;collapsible=0;dropTarget=0;fillColor=none;points=[[0,0.5],[1,0.5]];portConstraint=eastwest;strokeColor=inherit;fontSize=16;" parent="i-EBLwyvAAWgkTN1wCGx-27" vertex="1">
                    <mxGeometry y="65" width="270" height="30" as="geometry"/>
                </mxCell>
                <mxCell id="i-EBLwyvAAWgkTN1wCGx-35" value="" style="shape=partialRectangle;html=1;whiteSpace=wrap;connectable=0;fillColor=none;top=0;left=0;bottom=0;right=0;overflow=hidden;strokeColor=inherit;fontSize=16;" parent="i-EBLwyvAAWgkTN1wCGx-34" vertex="1">
                    <mxGeometry width="54" height="30" as="geometry">
                        <mxRectangle width="54" height="30" as="alternateBounds"/>
                    </mxGeometry>
                </mxCell>
                <mxCell id="i-EBLwyvAAWgkTN1wCGx-36" value="nombre (VARCHAR 100)" style="shape=partialRectangle;html=1;whiteSpace=wrap;connectable=0;fillColor=none;top=0;left=0;bottom=0;right=0;align=left;spacingLeft=6;overflow=hidden;strokeColor=inherit;fontSize=16;" parent="i-EBLwyvAAWgkTN1wCGx-34" vertex="1">
                    <mxGeometry x="54" width="216" height="30" as="geometry">
                        <mxRectangle width="216" height="30" as="alternateBounds"/>
                    </mxGeometry>
                </mxCell>
                <mxCell id="i-EBLwyvAAWgkTN1wCGx-37" value="" style="shape=tableRow;horizontal=0;startSize=0;swimlaneHead=0;swimlaneBody=0;top=0;left=0;bottom=0;right=0;collapsible=0;dropTarget=0;fillColor=none;points=[[0,0.5],[1,0.5]];portConstraint=eastwest;strokeColor=inherit;fontSize=16;" parent="i-EBLwyvAAWgkTN1wCGx-27" vertex="1">
                    <mxGeometry y="95" width="270" height="30" as="geometry"/>
                </mxCell>
                <mxCell id="i-EBLwyvAAWgkTN1wCGx-38" value="" style="shape=partialRectangle;html=1;whiteSpace=wrap;connectable=0;fillColor=none;top=0;left=0;bottom=0;right=0;overflow=hidden;strokeColor=inherit;fontSize=16;" parent="i-EBLwyvAAWgkTN1wCGx-37" vertex="1">
                    <mxGeometry width="54" height="30" as="geometry">
                        <mxRectangle width="54" height="30" as="alternateBounds"/>
                    </mxGeometry>
                </mxCell>
                <mxCell id="i-EBLwyvAAWgkTN1wCGx-39" value="email (VARCHAR 50)" style="shape=partialRectangle;html=1;whiteSpace=wrap;connectable=0;fillColor=none;top=0;left=0;bottom=0;right=0;align=left;spacingLeft=6;overflow=hidden;strokeColor=inherit;fontSize=16;" parent="i-EBLwyvAAWgkTN1wCGx-37" vertex="1">
                    <mxGeometry x="54" width="216" height="30" as="geometry">
                        <mxRectangle width="216" height="30" as="alternateBounds"/>
                    </mxGeometry>
                </mxCell>
                <mxCell id="i-EBLwyvAAWgkTN1wCGx-40" value="" style="shape=tableRow;horizontal=0;startSize=0;swimlaneHead=0;swimlaneBody=0;top=0;left=0;bottom=0;right=0;collapsible=0;dropTarget=0;fillColor=none;points=[[0,0.5],[1,0.5]];portConstraint=eastwest;strokeColor=inherit;fontSize=16;" parent="i-EBLwyvAAWgkTN1wCGx-27" vertex="1">
                    <mxGeometry y="125" width="270" height="25" as="geometry"/>
                </mxCell>
                <mxCell id="i-EBLwyvAAWgkTN1wCGx-41" value="" style="shape=partialRectangle;html=1;whiteSpace=wrap;connectable=0;fillColor=none;top=0;left=0;bottom=0;right=0;overflow=hidden;strokeColor=inherit;fontSize=16;" parent="i-EBLwyvAAWgkTN1wCGx-40" vertex="1">
                    <mxGeometry width="54" height="25" as="geometry">
                        <mxRectangle width="54" height="25" as="alternateBounds"/>
                    </mxGeometry>
                </mxCell>
                <mxCell id="i-EBLwyvAAWgkTN1wCGx-42" value="" style="shape=partialRectangle;html=1;whiteSpace=wrap;connectable=0;fillColor=none;top=0;left=0;bottom=0;right=0;align=left;spacingLeft=6;overflow=hidden;strokeColor=inherit;fontSize=16;" parent="i-EBLwyvAAWgkTN1wCGx-40" vertex="1">
                    <mxGeometry x="54" width="216" height="25" as="geometry">
                        <mxRectangle width="216" height="25" as="alternateBounds"/>
                    </mxGeometry>
                </mxCell>
                <mxCell id="i-EBLwyvAAWgkTN1wCGx-43" value="" style="shape=tableRow;horizontal=0;startSize=0;swimlaneHead=0;swimlaneBody=0;top=0;left=0;bottom=0;right=0;collapsible=0;dropTarget=0;fillColor=none;points=[[0,0.5],[1,0.5]];portConstraint=eastwest;strokeColor=inherit;fontSize=16;" parent="i-EBLwyvAAWgkTN1wCGx-27" vertex="1">
                    <mxGeometry y="150" width="270" height="30" as="geometry"/>
                </mxCell>
                <mxCell id="i-EBLwyvAAWgkTN1wCGx-44" value="" style="shape=partialRectangle;html=1;whiteSpace=wrap;connectable=0;fillColor=none;top=0;left=0;bottom=0;right=0;overflow=hidden;strokeColor=inherit;fontSize=16;" parent="i-EBLwyvAAWgkTN1wCGx-43" vertex="1">
                    <mxGeometry width="54" height="30" as="geometry">
                        <mxRectangle width="54" height="30" as="alternateBounds"/>
                    </mxGeometry>
                </mxCell>
                <mxCell id="i-EBLwyvAAWgkTN1wCGx-45" value="fecha_entrada (DATE)" style="shape=partialRectangle;html=1;whiteSpace=wrap;connectable=0;fillColor=none;top=0;left=0;bottom=0;right=0;align=left;spacingLeft=6;overflow=hidden;strokeColor=inherit;fontSize=16;" parent="i-EBLwyvAAWgkTN1wCGx-43" vertex="1">
                    <mxGeometry x="54" width="216" height="30" as="geometry">
                        <mxRectangle width="216" height="30" as="alternateBounds"/>
                    </mxGeometry>
                </mxCell>
                <mxCell id="i-EBLwyvAAWgkTN1wCGx-46" value="" style="shape=tableRow;horizontal=0;startSize=0;swimlaneHead=0;swimlaneBody=0;top=0;left=0;bottom=0;right=0;collapsible=0;dropTarget=0;fillColor=none;points=[[0,0.5],[1,0.5]];portConstraint=eastwest;strokeColor=inherit;fontSize=16;" parent="i-EBLwyvAAWgkTN1wCGx-27" vertex="1">
                    <mxGeometry y="180" width="270" height="30" as="geometry"/>
                </mxCell>
                <mxCell id="i-EBLwyvAAWgkTN1wCGx-47" value="" style="shape=partialRectangle;html=1;whiteSpace=wrap;connectable=0;fillColor=none;top=0;left=0;bottom=0;right=0;overflow=hidden;strokeColor=inherit;fontSize=16;" parent="i-EBLwyvAAWgkTN1wCGx-46" vertex="1">
                    <mxGeometry width="54" height="30" as="geometry">
                        <mxRectangle width="54" height="30" as="alternateBounds"/>
                    </mxGeometry>
                </mxCell>
                <mxCell id="i-EBLwyvAAWgkTN1wCGx-48" value="fecha_salida (DATE)" style="shape=partialRectangle;html=1;whiteSpace=wrap;connectable=0;fillColor=none;top=0;left=0;bottom=0;right=0;align=left;spacingLeft=6;overflow=hidden;strokeColor=inherit;fontSize=16;" parent="i-EBLwyvAAWgkTN1wCGx-46" vertex="1">
                    <mxGeometry x="54" width="216" height="30" as="geometry">
                        <mxRectangle width="216" height="30" as="alternateBounds"/>
                    </mxGeometry>
                </mxCell>
                <mxCell id="wRFcVSzYomF_P2J10pTV-1" value="" style="shape=tableRow;horizontal=0;startSize=0;swimlaneHead=0;swimlaneBody=0;top=0;left=0;bottom=0;right=0;collapsible=0;dropTarget=0;fillColor=none;points=[[0,0.5],[1,0.5]];portConstraint=eastwest;strokeColor=inherit;fontSize=16;" parent="i-EBLwyvAAWgkTN1wCGx-27" vertex="1">
                    <mxGeometry y="210" width="270" height="30" as="geometry"/>
                </mxCell>
                <mxCell id="wRFcVSzYomF_P2J10pTV-2" value="" style="shape=partialRectangle;html=1;whiteSpace=wrap;connectable=0;fillColor=none;top=0;left=0;bottom=0;right=0;overflow=hidden;strokeColor=inherit;fontSize=16;" parent="wRFcVSzYomF_P2J10pTV-1" vertex="1">
                    <mxGeometry width="54" height="30" as="geometry">
                        <mxRectangle width="54" height="30" as="alternateBounds"/>
                    </mxGeometry>
                </mxCell>
                <mxCell id="wRFcVSzYomF_P2J10pTV-3" value="cantidad_personas (INT)" style="shape=partialRectangle;html=1;whiteSpace=wrap;connectable=0;fillColor=none;top=0;left=0;bottom=0;right=0;align=left;spacingLeft=6;overflow=hidden;strokeColor=inherit;fontSize=16;" parent="wRFcVSzYomF_P2J10pTV-1" vertex="1">
                    <mxGeometry x="54" width="216" height="30" as="geometry">
                        <mxRectangle width="216" height="30" as="alternateBounds"/>
                    </mxGeometry>
                </mxCell>
                <mxCell id="v6Q0_A3LFPDqWeC7qKI4-1" value="teléfono (VARCHAR 20)" style="shape=partialRectangle;html=1;whiteSpace=wrap;connectable=0;fillColor=none;top=0;left=0;bottom=0;right=0;align=left;spacingLeft=6;overflow=hidden;strokeColor=inherit;fontSize=16;" parent="1" vertex="1">
                    <mxGeometry x="1049" y="870" width="192" height="30" as="geometry">
                        <mxRectangle width="192" height="30" as="alternateBounds"/>
                    </mxGeometry>
                </mxCell>
                <mxCell id="q2Icw_3bjuka83Kl7v6N-1" value="" style="endArrow=classic;html=1;exitX=1;exitY=0.5;exitDx=0;exitDy=0;" parent="1" source="uO4QV5dqB0JAfxWj99dK-7" edge="1">
                    <mxGeometry width="50" height="50" relative="1" as="geometry">
                        <mxPoint x="900" y="650" as="sourcePoint"/>
                        <mxPoint x="990" y="800" as="targetPoint"/>
                    </mxGeometry>
                </mxCell>
            </root>
        </mxGraphModel>
    </diagram>
</mxfile>